{"title":"Calvin Harris Ft. Ne-Yo - Let's Go [Music Video] 1080p [Sbyky]","uid":8838055,"size":122754203,"categoryP":"video","categoryS":"music_videos","magnet":"?xt=urn:btih:ae14031047be4821d2361e0fa2b3424b8fbc0f4a&amp;dn=Calvin+Harris+Ft.+Ne-Yo+-+Let%27s+Go+%5BMusic+Video%5D+1080p+%5BSbyky%5D&amp;tr=udp%3A%2F%2Ftracker.openbittorrent.com%3A80&amp;tr=udp%3A%2F%2Fopen.demonii.com%3A1337&amp;tr=udp%3A%2F%2Ftracker.coppersurfer.tk%3A6969&amp;tr=udp%3A%2F%2Fexodus.desync.com%3A6969","seeders":1,"leechers":0,"uploader":"Sbyky","files":-1,"time":1377176873,"description":"[IMG]http://yuq.me/users/18/139/abgWOns9XG.png[/IMG]\n\nGeneral\nComplete name                            : Calvin Harris Ft. Ne-Yo - Let's Go [Music Video] 1080p [Sbyky].mp4\nFormat                                   : MPEG-4\nFormat profile                           : Base Media / Version 2\nCodec ID                                 : mp42\nFile size                                : 117 MiB\nDuration                                 : 4mn 12s\nOverall bit rate mode                    : Variable\nOverall bit rate                         : 3 896 Kbps\nEncoded date                             : UTC 2012-05-15 15:20:54\nTagged date                              : UTC 2012-05-15 15:20:54\n\nVideo\nID                                       : 1\nFormat                                   : AVC\nFormat/Info                              : Advanced Video Codec\nFormat profile                           : &lt;a class=&quot;__cf_email__&quot; href=&quot;/cdn-cgi/l/email-protection&quot; data-cfemail=&quot;521a3b353a121e667c62&quot;&gt;[email&amp;#160;protected]&lt;/a&gt;&lt;script cf-hash='f9e31' type=&quot;text/javascript&quot;&gt;\n/* &lt;![CDATA[ */!function(){try{var t=&quot;currentScript&quot;in document?document.currentScript:function(){for(var t=document.getElementsByTagName(&quot;script&quot;),e=t.length;e--;)if(t[e].getAttribute(&quot;cf-hash&quot;))return t[e]}();if(t&amp;&amp;t.previousSibling){var e,r,n,i,c=t.previousSibling,a=c.getAttribute(&quot;data-cfemail&quot;);if(a){for(e=&quot;&quot;,r=parseInt(a.substr(0,2),16),n=2;a.length-n;n+=2)i=parseInt(a.substr(n,2),16)^r,e+=String.fromCharCode(i);e=document.createTextNode(e),c.parentNode.replaceChild(e,c)}}}catch(u){}}();/* ]]&gt; */&lt;/script&gt;\nFormat settings, CABAC                   : Yes\nFormat settings, ReFrames                : 1 frame\nCodec ID                                 : avc1\nCodec ID/Info                            : Advanced Video Coding\nDuration                                 : 4mn 12s\nBit rate                                 : 3 744 Kbps\nMaximum bit rate                         : 9 665 Kbps\nWidth                                    : 1 920 pixels\nHeight                                   : 1 080 pixels\nDisplay aspect ratio                     : 16:9\nFrame rate mode                          : Constant\nFrame rate                               : 24.000 fps\nColor space                              : YUV\nChroma subsampling                       : 4:2:0\nBit depth                                : 8 bits\nScan type                                : Progressive\nBits/(Pixel*Frame)                       : 0.075\nStream size                              : 112 MiB (96%)\nTagged date                              : UTC 2012-05-15 15:20:55\n\nAudio\nID                                       : 2\nFormat                                   : AAC\nFormat/Info                              : Advanced Audio Codec\nFormat profile                           : LC\nCodec ID                                 : 40\nDuration                                 : 4mn 12s\nBit rate mode                            : Variable\nBit rate                                 : 150 Kbps\nMaximum bit rate                         : 221 Kbps\nChannel(s)                               : 2 channels\nChannel positions                        : Front: L R\nSampling rate                            : 44.1 KHz\nCompression mode                         : Lossy\nStream size                              : 4.50 MiB (4%)\nTitle                                    : IsoMedia File Produced by Google, 5-11-2011\nEncoded date                             : UTC 2012-05-15 15:20:55\nTagged date                              : UTC 2012-05-15 15:20:55\n\nShared By Sbyky\n[IMG]http://yuq.me/users/18/139/0aq32UMZvX.gif[/IMG]\n[IMG]http://yuq.me/users/18/139/bQg62viaEG.gif[/IMG]","torrent":{"xt":"urn:btih:ae14031047be4821d2361e0fa2b3424b8fbc0f4a","amp;dn":"Calvin+Harris+Ft.+Ne-Yo+-+Let%27s+Go+%5BMusic+Video%5D+1080p+%5BSbyky%5D","amp;tr":["udp%3A%2F%2Ftracker.openbittorrent.com%3A80","udp%3A%2F%2Fopen.demonii.com%3A1337","udp%3A%2F%2Ftracker.coppersurfer.tk%3A6969","udp%3A%2F%2Fexodus.desync.com%3A6969"],"infoHash":"ae14031047be4821d2361e0fa2b3424b8fbc0f4a","infoHashBuffer":{"type":"Buffer","data":[174,20,3,16,71,190,72,33,210,54,30,15,162,179,66,75,143,188,15,74]},"announce":[],"urlList":[]}}